# xmcd
#
# Track frame offsets:
#	150
#	20289
#	38662
#	61162
#	79896
#	98438
#	125462
#	152027
#	173437
#	192973
#	207922
#
# Disc length: 3181 seconds
#
# Revision: 10
# Processed by: cddbd v1.5.2PL0 Copyright (c) Steve Scherf et al.
# Submitted via: Jack! The Knife 20 Magnifico
#
DISCID=7c0c6b0b
DTITLE=Bullet For My Valentine - Scream Aim Fire
DYEAR=2008
DGENRE=Metal
TTITLE0=Scream Aim Fire
TTITLE1=Eye Of The Storm
TTITLE2=Hearts Burst Into Fire
TTITLE3=Waking The Demon
TTITLE4=Disappear
TTITLE5=Deliver Us To Evil
TTITLE6=Take It Out On Me
TTITLE7=Say Goodnight
TTITLE8=End Of Days
TTITLE9=Last To Know
TTITLE10=Forever And Always
EXTD=Colin Richardson
EXTT0=Tuck, James, Paget, Thomas
EXTT1=Tuck, James, Paget, Thomas
EXTT2=Tuck, James, Paget, Thomas
EXTT3=Tuck, James, Paget, Thomas
EXTT4=Tuck, James, Paget, Thomas
EXTT5=Tuck, James, Paget, Thomas
EXTT6=Tuck, James, Paget, Thomas
EXTT7=Tuck, James, Paget, Thomas
EXTT8=Tuck, James, Paget, Thomas
EXTT9=Tuck, James, Paget, Thomas
EXTT10=Tuck, James, Paget, Thomas
PLAYORDER=
